<svg xmlns="http://www.w3.org/2000/svg" viewBox="160 170 904 904" shape-rendering="geometricPrecision"><rect fill="#d9534f" x="0" y="-2.73" width="1244.24" height="1249.7"/><g fill="#fdfcf8"><path d="M348.67,270.34c3.92,14.65,7.58,28.13,10.97,40.38,4.76,17.17,9.35,32.56,13.78,46.16l45.05,131.6h49.82l-90.45-253.33h-57.64l-88.41,253.33h49.65l43.53-131.6c4.08-13.15,8.42-28.36,13.01-45.65,3.29-12.38,6.86-26.03,10.7-40.89Z"/><rect x="517.81" y="235.14" width="45.39" height="253.33"/><polygon points="610.01 397.33 876.71 397.33 876.71 927.67 373.15 927.67 373.15 495.28 326.48 495.28 326.48 974.33 923.37 974.33 923.37 350.67 610.01 350.67 610.01 397.33"/><polygon points="563.21 685.96 681.03 685.96 681.03 796.3 726.43 796.3 726.43 542.97 681.03 542.97 681.03 647.7 563.21 647.7 563.21 542.97 517.81 542.97 517.81 796.3 563.21 796.3 563.21 685.96"/></g></svg>
