<?xml version="1.0" encoding="UTF-8"?><svg id="Layer_1" xmlns="http://www.w3.org/2000/svg" viewBox="0 0 2821.73 1244.24"><defs><style>.cls-1{fill:#1c1917;}</style></defs><polygon class="cls-1" points="563.21 796.3 563.21 687.02 681.03 687.02 681.03 796.3 681.03 797.37 726.43 797.37 726.43 796.3 726.43 544.03 726.43 542.97 681.03 542.97 681.03 544.03 681.03 647.7 563.21 647.7 563.21 544.03 563.21 542.97 517.81 542.97 517.81 544.03 517.81 796.3 517.81 797.37 563.21 797.37 563.21 796.3"/><polygon class="cls-1" points="1029.75 582.29 1029.75 544.03 865.17 544.03 865.17 797.37 1030.43 797.37 1030.43 759.11 910.56 759.11 910.56 688.38 1020.91 688.38 1020.91 650.64 910.56 650.64 910.56 582.29 1029.75 582.29"/><path class="cls-1" d="M1337.4,667.13c6.86-11.9,10.28-25.9,10.28-42s-3.4-30.23-10.2-42.42c-6.8-12.18-16.83-21.68-30.1-28.48-13.26-6.8-29.58-10.2-48.96-10.2h-94.7v253.33h45.39v-93h47.28l49.8,93h50.84l-54.88-100.53c1.67-.68,3.31-1.39,4.89-2.16,13.37-6.46,23.49-15.64,30.35-27.55ZM1209.12,582.12h42.34c11.56,0,21,1.7,28.31,5.1,7.31,3.4,12.72,8.31,16.24,14.71,3.51,6.4,5.27,14.14,5.27,23.21s-1.76,16.38-5.27,22.61c-3.52,6.24-8.9,10.97-16.15,14.2-7.25,3.23-16.6,4.84-28.06,4.84h-42.67v-84.67Z"/><path class="cls-1" d="M1524.56,783.98c17.57,10.32,37.46,15.47,59.68,15.47s41.91-5.13,59.42-15.38c17.52-10.26,31.34-25.11,41.49-44.55,10.14-19.44,15.22-42.76,15.22-69.96s-5.08-50.69-15.22-70.13c-10.15-19.44-23.97-34.32-41.49-44.63-17.51-10.31-37.32-15.47-59.42-15.47s-42.11,5.16-59.68,15.47c-17.57,10.32-31.43,25.19-41.57,44.63-10.15,19.44-15.22,42.82-15.22,70.13s5.07,50.5,15.22,69.88c10.14,19.38,24,34.24,41.57,44.55ZM1522.43,620.67c6.06-13.32,14.42-23.44,25.08-30.35,10.65-6.91,22.9-10.37,36.73-10.37s25.87,3.43,36.47,10.29c10.6,6.86,18.9,16.95,24.91,30.26,6.01,13.32,9.01,29.67,9.01,49.05s-3,35.39-9.01,48.71c-6.01,13.32-14.31,23.41-24.91,30.26-10.6,6.86-22.76,10.29-36.47,10.29s-26.07-3.46-36.73-10.37c-10.65-6.91-19.02-17.01-25.08-30.27-6.07-13.26-9.1-29.47-9.1-48.63s3.03-35.56,9.1-48.88Z"/><polygon class="cls-1" points="1995.69 580.97 1995.69 542.71 1831.11 542.71 1831.11 796.05 1996.37 796.05 1996.37 757.79 1876.5 757.79 1876.5 687.06 1986.85 687.06 1986.85 649.32 1876.5 649.32 1876.5 580.97 1995.69 580.97"/><path class="cls-1" d="M2244.69,756.6c-7.65,3.06-16.46,4.59-26.44,4.59s-18.19-1.44-26.01-4.33c-7.82-2.89-14.11-7.28-18.87-13.18-4.76-5.89-7.54-13.26-8.33-22.1h-44.72c.68,16.66,5.1,30.84,13.26,42.51,8.16,11.68,19.47,20.57,33.92,26.69,14.45,6.12,31.48,9.18,51.09,9.18s37.41-3.14,51.69-9.44c14.28-6.29,25.22-15.07,32.81-26.35,7.59-11.28,11.39-24.34,11.39-39.19,0-11-2.1-20.57-6.29-28.74-4.19-8.16-9.83-15.11-16.91-20.83-7.09-5.72-15.05-10.46-23.89-14.19-8.84-3.74-17.97-6.74-27.38-9.01l-23.63-6.12c-6.8-1.7-13.52-3.91-20.15-6.63-6.63-2.72-12.13-6.35-16.49-10.88-4.37-4.53-6.54-10.32-6.54-17.34,0-6.46,1.84-12.18,5.52-17.17,3.68-4.99,8.95-8.93,15.81-11.82,6.86-2.89,15.05-4.33,24.57-4.33,13.71,0,24.85,2.98,33.41,8.93,8.56,5.95,13.4,14.36,14.54,25.24h44.04c-.34-14.05-4.34-26.58-11.99-37.58-7.65-10.99-18.28-19.61-31.88-25.84-13.6-6.23-29.41-9.35-47.44-9.35s-33.49,3.09-47.44,9.26c-13.94,6.18-24.94,14.88-32.98,26.1-8.05,11.22-12.08,24.31-12.08,39.27,0,17.91,5.92,32.36,17.77,43.35,11.84,11,28.36,19.22,49.56,24.66l28.74,7.48c9.18,2.27,17.2,4.91,24.06,7.91,6.86,3.01,12.18,6.66,15.99,10.97,3.8,4.31,5.7,9.75,5.7,16.32,0,7.25-2.16,13.63-6.46,19.13-4.31,5.5-10.29,9.77-17.94,12.84Z"/><path class="cls-1" d="M348.67,270.34c3.92,14.65,7.58,28.13,10.97,40.38,4.76,17.17,9.35,32.56,13.78,46.16l45.05,131.6h49.82l-90.45-253.33h-57.64l-88.41,253.33h49.65l43.53-131.6c4.08-13.15,8.42-28.36,13.01-45.65,3.29-12.38,6.86-26.03,10.7-40.89Z"/><rect class="cls-1" x="517.81" y="235.14" width="45.39" height="253.33"/><polygon class="cls-1" points="610.01 350.67 610.01 397.33 2454.19 397.33 2454.19 927.67 373.14 927.67 373.14 495.28 326.48 495.28 326.48 974.33 2500.86 974.33 2500.86 350.67 610.01 350.67"/></svg>