<?xml version="1.0" encoding="UTF-8"?>
<svg id="Laag_1" xmlns="http://www.w3.org/2000/svg" version="1.1" viewBox="0 0 701.24 556.26">
  <!-- Generator: Adobe Illustrator 30.2.1, SVG Export Plug-In . SVG Version: 2.1.1 Build 1)  -->
  <defs>
    <style>
      .st0 {
        fill: #192e44;
        fill-rule: evenodd;
      }
    </style>
  </defs>
  <path class="st0" d="M185.99,343.61c5.35-2.9,9.46-7.34,12.35-13.3,2.89-5.96,4.33-13.54,4.33-22.72s-1.44-16.85-4.33-22.78c-2.89-5.92-7-10.34-12.35-13.24-5.34-2.9-11.83-4.36-19.46-4.36h-29.93v80.76h29.93c7.62,0,14.11-1.45,19.46-4.36ZM152.53,333.48v-51.91h13.9c3.21,0,6.06.53,8.55,1.59,2.49,1.06,4.56,2.59,6.2,4.59,1.64,2,2.89,4.51,3.74,7.53.85,3.02,1.28,6.53,1.28,10.54v3.53c0,4-.43,7.52-1.28,10.54-.86,3.02-2.1,5.53-3.74,7.54-1.64,2-3.71,3.51-6.2,4.53-2.5,1.02-5.34,1.53-8.55,1.53h-13.9Z"/>
  <path class="st0" d="M220.84,318.53h20.42l12.93,29.43h17.64l-14.97-32.37c4.06-2.12,7.16-5.2,9.3-9.24,2.14-4.04,3.21-8.69,3.21-13.95,0-4.94-.89-9.32-2.67-13.12-1.78-3.81-4.47-6.77-8.07-8.89-3.6-2.12-8.11-3.18-13.52-3.18h-40.19v80.76h15.93v-29.43ZM220.84,281.45h22.13c2.21,0,4.06.43,5.56,1.29,1.5.87,2.64,2.14,3.42,3.83.78,1.69,1.18,3.71,1.18,6.06,0,3.69-.89,6.61-2.67,8.77-1.78,2.16-4.28,3.24-7.48,3.24h-22.13v-23.19Z"/>
  <polygon class="st0" points="291.4 347.96 307.43 347.96 307.43 315.47 335.65 267.21 318.23 267.21 300.16 299.7 299.63 299.7 281.45 267.21 262.96 267.21 291.4 315.47 291.4 347.96"/>
  <path class="st0" d="M580.76,107.32H106.36v343.9h486.91V107.32h-12.52ZM165.99,415.94v-38.58h6.81c2.59,0,4.86.36,6.73,1.06,1.8.68,3.29,1.67,4.42,2.93,1.15,1.28,2.01,2.91,2.56,4.84.58,2.03.87,4.36.87,6.93v7.06c0,2.57-.29,4.9-.87,6.92-.55,1.93-1.41,3.56-2.56,4.84-1.14,1.27-2.63,2.26-4.42,2.93-1.87.71-4.13,1.06-6.73,1.06h-6.81ZM197.33,434.4c6.6-3.05,11.69-7.81,15.12-14.13.83-1.53,1.56-3.17,2.19-4.9.68,1.86,1.48,3.62,2.39,5.27,3.62,6.54,8.91,11.52,15.74,14.81,2.86,1.38,6.01,2.45,9.38,3.25h-63c6.98-.51,13.08-1.94,18.18-4.3ZM378.79,391.25v11.27h-25.07v1.78c0,2.76-.51,5.16-1.51,7.14-.98,1.92-2.38,3.34-4.3,4.35-1.97,1.04-4.56,1.56-7.7,1.56s-5.68-.68-7.56-2.02c-1.92-1.37-3.31-3.26-4.25-5.77-.98-2.61-1.48-5.69-1.48-9.14v-7.53c0-3.46.48-6.55,1.42-9.17.9-2.49,2.28-4.37,4.23-5.74,1.92-1.35,4.57-2.03,7.86-2.03,2.79,0,5.12.55,6.91,1.63,1.79,1.08,3.13,2.57,4.08,4.55.98,2.03,1.47,4.5,1.47,7.35v1.78h25.9ZM362.36,436.24c6.12-2.77,10.86-6.91,14.1-12.3.91-1.52,1.68-3.15,2.34-4.87v19.63h-23.65c2.58-.64,4.99-1.46,7.21-2.47ZM272.49,400.41c0,2.56-.33,4.94-.98,7.07-.63,2.06-1.59,3.84-2.87,5.29-1.27,1.44-2.87,2.57-4.77,3.36-1.93.81-4.21,1.22-6.79,1.22s-4.86-.41-6.79-1.22c-1.88-.79-3.46-1.91-4.69-3.34-1.25-1.45-2.2-3.24-2.83-5.31-.65-2.13-.98-4.51-.98-7.07v-7.53c0-2.56.33-4.94.98-7.07.63-2.07,1.58-3.85,2.83-5.31,1.22-1.43,2.8-2.55,4.69-3.34,1.93-.81,4.21-1.22,6.79-1.22s4.86.41,6.79,1.22c1.9.79,3.5,1.92,4.76,3.36,1.27,1.45,2.24,3.23,2.87,5.29.65,2.14.98,4.51.98,7.07v7.53ZM281.52,435.45c6.82-3.29,12.12-8.27,15.74-14.81.88-1.6,1.66-3.29,2.32-5.08.61,1.77,1.31,3.44,2.12,5.02,3.34,6.56,8.36,11.55,14.91,14.85,2.76,1.39,5.82,2.46,9.13,3.26h-53.63c3.39-.8,6.54-1.87,9.41-3.25ZM408.37,438.7v-17.75l11.57-11.18,16.44,28.93h-28.01ZM580.76,438.7h-109.41l-30.52-49.06,30.79-35.28h-37.01l-26.22,31.47v-31.47h-29.58v20.38c-.72-1.87-1.57-3.65-2.59-5.29-3.39-5.46-8.23-9.63-14.38-12.4-6.05-2.72-13.21-4.1-21.27-4.1-14.24,0-25.21,3.74-32.63,11.11-3.68,3.66-6.46,8.21-8.33,13.6-.67-1.79-1.45-3.49-2.34-5.08-3.62-6.5-8.91-11.46-15.73-14.75-6.73-3.24-14.95-4.89-24.44-4.89s-17.59,1.64-24.32,4.89c-6.82,3.29-12.12,8.25-15.73,14.75-.92,1.64-1.71,3.4-2.4,5.26-.63-1.73-1.36-3.37-2.19-4.89-3.43-6.28-8.52-11.01-15.12-14.07-6.49-3-14.58-4.52-24.06-4.52h-36.86v84.33h-17.53V119.84h461.87v318.87Z"/>
</svg>