<svg xmlns="http://www.w3.org/2000/svg" width="680" height="240" viewBox="0 0 680 240">
<defs><linearGradient id="gw" x1="0" y1="0" x2="240" y2="240" gradientUnits="userSpaceOnUse"><stop offset="0" stop-color="#c49a54"></stop><stop offset=".55" stop-color="#a87f3d"></stop><stop offset="1" stop-color="#8f6a2f"></stop></linearGradient></defs><g transform="translate(24,24) scale(0.8)"><g fill="none" stroke="url(#gw)">
<circle cx="120" cy="120" r="86" stroke-width="9"></circle>
<circle cx="120" cy="120" r="93.5" stroke-width="1.6" opacity=".7"></circle>
<circle cx="120" cy="120" r="78.5" stroke-width="1.6" opacity=".7"></circle>
<g transform="rotate(0 120 120)"><line x1="120" y1="26" x2="120" y2="14" stroke-width="4.6" stroke-linecap="round"></line><line x1="114.5" y1="26.5" x2="125.5" y2="26.5" stroke-width="3.4" stroke-linecap="round"></line><circle cx="120" cy="9.5" r="4.6" stroke="none" fill="#a87f3d"></circle></g><g transform="rotate(45 120 120)"><line x1="120" y1="26" x2="120" y2="14" stroke-width="4.6" stroke-linecap="round"></line><line x1="114.5" y1="26.5" x2="125.5" y2="26.5" stroke-width="3.4" stroke-linecap="round"></line><circle cx="120" cy="9.5" r="4.6" stroke="none" fill="#a87f3d"></circle></g><g transform="rotate(90 120 120)"><line x1="120" y1="26" x2="120" y2="14" stroke-width="4.6" stroke-linecap="round"></line><line x1="114.5" y1="26.5" x2="125.5" y2="26.5" stroke-width="3.4" stroke-linecap="round"></line><circle cx="120" cy="9.5" r="4.6" stroke="none" fill="#a87f3d"></circle></g><g transform="rotate(135 120 120)"><line x1="120" y1="26" x2="120" y2="14" stroke-width="4.6" stroke-linecap="round"></line><line x1="114.5" y1="26.5" x2="125.5" y2="26.5" stroke-width="3.4" stroke-linecap="round"></line><circle cx="120" cy="9.5" r="4.6" stroke="none" fill="#a87f3d"></circle></g><g transform="rotate(180 120 120)"><line x1="120" y1="26" x2="120" y2="14" stroke-width="4.6" stroke-linecap="round"></line><line x1="114.5" y1="26.5" x2="125.5" y2="26.5" stroke-width="3.4" stroke-linecap="round"></line><circle cx="120" cy="9.5" r="4.6" stroke="none" fill="#a87f3d"></circle></g><g transform="rotate(225 120 120)"><line x1="120" y1="26" x2="120" y2="14" stroke-width="4.6" stroke-linecap="round"></line><line x1="114.5" y1="26.5" x2="125.5" y2="26.5" stroke-width="3.4" stroke-linecap="round"></line><circle cx="120" cy="9.5" r="4.6" stroke="none" fill="#a87f3d"></circle></g><g transform="rotate(270 120 120)"><line x1="120" y1="26" x2="120" y2="14" stroke-width="4.6" stroke-linecap="round"></line><line x1="114.5" y1="26.5" x2="125.5" y2="26.5" stroke-width="3.4" stroke-linecap="round"></line><circle cx="120" cy="9.5" r="4.6" stroke="none" fill="#a87f3d"></circle></g><g transform="rotate(315 120 120)"><line x1="120" y1="26" x2="120" y2="14" stroke-width="4.6" stroke-linecap="round"></line><line x1="114.5" y1="26.5" x2="125.5" y2="26.5" stroke-width="3.4" stroke-linecap="round"></line><circle cx="120" cy="9.5" r="4.6" stroke="none" fill="#a87f3d"></circle></g><g transform="rotate(0 120 120)"><line x1="120" y1="50" x2="120" y2="86" stroke-width="7" stroke-linecap="round"></line><line x1="120" y1="84" x2="120" y2="93" stroke-width="9.5"></line></g><g transform="rotate(45 120 120)"><line x1="120" y1="50" x2="120" y2="86" stroke-width="7" stroke-linecap="round"></line><line x1="120" y1="84" x2="120" y2="93" stroke-width="9.5"></line></g><g transform="rotate(90 120 120)"><line x1="120" y1="50" x2="120" y2="86" stroke-width="7" stroke-linecap="round"></line><line x1="120" y1="84" x2="120" y2="93" stroke-width="9.5"></line></g><g transform="rotate(135 120 120)"><line x1="120" y1="50" x2="120" y2="86" stroke-width="7" stroke-linecap="round"></line><line x1="120" y1="84" x2="120" y2="93" stroke-width="9.5"></line></g><g transform="rotate(180 120 120)"><line x1="120" y1="50" x2="120" y2="86" stroke-width="7" stroke-linecap="round"></line><line x1="120" y1="84" x2="120" y2="93" stroke-width="9.5"></line></g><g transform="rotate(225 120 120)"><line x1="120" y1="50" x2="120" y2="86" stroke-width="7" stroke-linecap="round"></line><line x1="120" y1="84" x2="120" y2="93" stroke-width="9.5"></line></g><g transform="rotate(270 120 120)"><line x1="120" y1="50" x2="120" y2="86" stroke-width="7" stroke-linecap="round"></line><line x1="120" y1="84" x2="120" y2="93" stroke-width="9.5"></line></g><g transform="rotate(315 120 120)"><line x1="120" y1="50" x2="120" y2="86" stroke-width="7" stroke-linecap="round"></line><line x1="120" y1="84" x2="120" y2="93" stroke-width="9.5"></line></g>
<circle cx="120" cy="120" r="30" stroke-width="7"></circle>
<circle cx="120" cy="120" r="21" stroke-width="1.6" opacity=".7"></circle>
<circle cx="120" cy="94.5" r="2.1" stroke="none" fill="#a87f3d"></circle><circle cx="120" cy="145.5" r="2.1" stroke="none" fill="#a87f3d"></circle><circle cx="94.5" cy="120" r="2.1" stroke="none" fill="#a87f3d"></circle><circle cx="145.5" cy="120" r="2.1" stroke="none" fill="#a87f3d"></circle><circle cx="102" cy="102" r="2.1" stroke="none" fill="#a87f3d"></circle><circle cx="138" cy="138" r="2.1" stroke="none" fill="#a87f3d"></circle><circle cx="138" cy="102" r="2.1" stroke="none" fill="#a87f3d"></circle><circle cx="102" cy="138" r="2.1" stroke="none" fill="#a87f3d"></circle></g></g>
<text x="248" y="148" font-family="'Cormorant Garamond',Georgia,serif" font-weight="600" font-size="100" fill="#8f6a2f">Helm</text>
<text x="254" y="192" font-family="'Hanken Grotesk',Arial,sans-serif" font-weight="600" font-size="19" letter-spacing="8.5" fill="#a87f3d">CONSULTANCY</text>
</svg>